<mxfile host="app.diagrams.net" modified="2022-06-11T07:09:32.776Z" agent="5.0 (Windows NT 10.0; Win64; x64) AppleWebKit/537.36 (KHTML, like Gecko) Chrome/100.0.4896.75 Safari/537.36" etag="eDUHVtOyXjubuK-qhQwp" version="19.0.3" type="github">
  <diagram id="R_lJlmI6amoIjlCIqB5n" name="Page-1">
    <mxGraphModel dx="782" dy="436" grid="0" gridSize="10" guides="1" tooltips="1" connect="1" arrows="1" fold="1" page="1" pageScale="1" pageWidth="827" pageHeight="1169" math="0" shadow="0">
      <root>
        <mxCell id="0" />
        <mxCell id="1" parent="0" />
        <mxCell id="A725inLDsLcEfGUUezHN-1" value="" style="rounded=0;whiteSpace=wrap;html=1;" vertex="1" parent="1">
          <mxGeometry x="60" y="34" width="709" height="409" as="geometry" />
        </mxCell>
        <mxCell id="A725inLDsLcEfGUUezHN-2" value="" style="rounded=0;whiteSpace=wrap;html=1;" vertex="1" parent="1">
          <mxGeometry x="59" y="34" width="709" height="409" as="geometry" />
        </mxCell>
        <mxCell id="A725inLDsLcEfGUUezHN-3" value="SPA" style="rounded=1;whiteSpace=wrap;html=1;fillColor=#dae8fc;strokeColor=#6c8ebf;" vertex="1" parent="1">
          <mxGeometry x="76" y="60" width="92" height="52" as="geometry" />
        </mxCell>
        <mxCell id="A725inLDsLcEfGUUezHN-5" value="MPA" style="rounded=1;whiteSpace=wrap;html=1;fillColor=#dae8fc;strokeColor=#6c8ebf;" vertex="1" parent="1">
          <mxGeometry x="183" y="60" width="90" height="51" as="geometry" />
        </mxCell>
        <mxCell id="A725inLDsLcEfGUUezHN-7" value="" style="rounded=0;whiteSpace=wrap;html=1;strokeColor=#9673a6;fillColor=#e1d5e7;" vertex="1" parent="1">
          <mxGeometry x="76" y="191" width="327" height="134" as="geometry" />
        </mxCell>
        <mxCell id="A725inLDsLcEfGUUezHN-8" value="plugin-fusion" style="rounded=1;whiteSpace=wrap;html=1;shadow=0;strokeColor=#ADADAD;fillColor=#FFFFFF;" vertex="1" parent="1">
          <mxGeometry x="86" y="213" width="97" height="40" as="geometry" />
        </mxCell>
        <mxCell id="A725inLDsLcEfGUUezHN-9" value="icejs 运行时能力" style="rounded=1;whiteSpace=wrap;html=1;shadow=0;strokeColor=#d6b656;fillColor=#fff2cc;" vertex="1" parent="1">
          <mxGeometry x="414" y="190" width="184" height="133" as="geometry" />
        </mxCell>
        <mxCell id="A725inLDsLcEfGUUezHN-10" value="&lt;b&gt;统一构建工具 build-scripts&lt;/b&gt;" style="rounded=1;whiteSpace=wrap;html=1;shadow=0;strokeColor=#b85450;fillColor=#f8cecc;" vertex="1" parent="1">
          <mxGeometry x="76" y="336" width="520" height="47" as="geometry" />
        </mxCell>
        <mxCell id="A725inLDsLcEfGUUezHN-14" value="&lt;span style=&quot;&quot;&gt;plugin-ssr&lt;/span&gt;" style="rounded=1;whiteSpace=wrap;html=1;shadow=0;strokeColor=#ADADAD;fillColor=#FFFFFF;" vertex="1" parent="1">
          <mxGeometry x="191" y="213" width="97" height="40" as="geometry" />
        </mxCell>
        <mxCell id="A725inLDsLcEfGUUezHN-15" value="&lt;span style=&quot;&quot;&gt;plugin-react-app&lt;/span&gt;" style="rounded=1;whiteSpace=wrap;html=1;shadow=0;strokeColor=#ADADAD;fillColor=#FFFFFF;" vertex="1" parent="1">
          <mxGeometry x="296" y="215" width="97" height="40" as="geometry" />
        </mxCell>
        <mxCell id="A725inLDsLcEfGUUezHN-16" value="build-scripts&amp;nbsp; 插件生态" style="rounded=1;whiteSpace=wrap;html=1;shadow=0;strokeColor=#ADADAD;fillColor=#FFFFFF;" vertex="1" parent="1">
          <mxGeometry x="88" y="271" width="299" height="40" as="geometry" />
        </mxCell>
        <mxCell id="A725inLDsLcEfGUUezHN-17" value="&lt;b&gt;基础依赖&lt;/b&gt;" style="text;html=1;align=center;verticalAlign=middle;resizable=0;points=[];autosize=1;strokeColor=none;fillColor=none;" vertex="1" parent="1">
          <mxGeometry x="610" y="354" width="58" height="18" as="geometry" />
        </mxCell>
        <mxCell id="A725inLDsLcEfGUUezHN-18" value="&lt;b&gt;工程能力&lt;/b&gt;" style="text;html=1;align=center;verticalAlign=middle;resizable=0;points=[];autosize=1;strokeColor=none;fillColor=none;" vertex="1" parent="1">
          <mxGeometry x="610" y="141.75" width="58" height="18" as="geometry" />
        </mxCell>
        <mxCell id="A725inLDsLcEfGUUezHN-19" value="&lt;b&gt;业务场景&lt;/b&gt;" style="text;html=1;align=center;verticalAlign=middle;resizable=0;points=[];autosize=1;strokeColor=none;fillColor=none;" vertex="1" parent="1">
          <mxGeometry x="610" y="76.5" width="58" height="18" as="geometry" />
        </mxCell>
        <mxCell id="A725inLDsLcEfGUUezHN-20" value="&lt;b&gt;插件体系&lt;/b&gt;" style="text;html=1;align=center;verticalAlign=middle;resizable=0;points=[];autosize=1;strokeColor=none;fillColor=none;" vertex="1" parent="1">
          <mxGeometry x="610" y="245" width="58" height="18" as="geometry" />
        </mxCell>
        <mxCell id="A725inLDsLcEfGUUezHN-21" value="SSR" style="rounded=1;whiteSpace=wrap;html=1;fillColor=#dae8fc;strokeColor=#6c8ebf;" vertex="1" parent="1">
          <mxGeometry x="288" y="60" width="90" height="51" as="geometry" />
        </mxCell>
        <mxCell id="A725inLDsLcEfGUUezHN-22" value="Micro Frontend" style="rounded=1;whiteSpace=wrap;html=1;fillColor=#dae8fc;strokeColor=#6c8ebf;" vertex="1" parent="1">
          <mxGeometry x="393" y="60.5" width="90" height="51" as="geometry" />
        </mxCell>
        <mxCell id="A725inLDsLcEfGUUezHN-23" value="Serverless" style="rounded=1;whiteSpace=wrap;html=1;fillColor=#dae8fc;strokeColor=#6c8ebf;" vertex="1" parent="1">
          <mxGeometry x="497" y="60.5" width="99" height="51" as="geometry" />
        </mxCell>
        <mxCell id="A725inLDsLcEfGUUezHN-24" value="Mock" style="rounded=1;whiteSpace=wrap;html=1;fillColor=#dae8fc;strokeColor=#6c8ebf;" vertex="1" parent="1">
          <mxGeometry x="76" y="124.75" width="92" height="52" as="geometry" />
        </mxCell>
        <mxCell id="A725inLDsLcEfGUUezHN-25" value="代理Proxy" style="rounded=1;whiteSpace=wrap;html=1;fillColor=#dae8fc;strokeColor=#6c8ebf;" vertex="1" parent="1">
          <mxGeometry x="183" y="124.75" width="90" height="51" as="geometry" />
        </mxCell>
        <mxCell id="A725inLDsLcEfGUUezHN-26" value="热更新HMR" style="rounded=1;whiteSpace=wrap;html=1;fillColor=#dae8fc;strokeColor=#6c8ebf;" vertex="1" parent="1">
          <mxGeometry x="288" y="124.75" width="90" height="51" as="geometry" />
        </mxCell>
        <mxCell id="A725inLDsLcEfGUUezHN-27" value="Code Spliting" style="rounded=1;whiteSpace=wrap;html=1;fillColor=#dae8fc;strokeColor=#6c8ebf;" vertex="1" parent="1">
          <mxGeometry x="393" y="125.25" width="90" height="51" as="geometry" />
        </mxCell>
        <mxCell id="A725inLDsLcEfGUUezHN-28" value="项目构建" style="rounded=1;whiteSpace=wrap;html=1;fillColor=#dae8fc;strokeColor=#6c8ebf;" vertex="1" parent="1">
          <mxGeometry x="497" y="125.25" width="99" height="51" as="geometry" />
        </mxCell>
      </root>
    </mxGraphModel>
  </diagram>
</mxfile>
